<svg fill="#fff" xmlns="http://www.w3.org/2000/svg" xmlns:xlink="http://www.w3.org/1999/xlink" version="1.1" x="0px" y="0px" viewBox="0 0 64 80" xml:space="preserve"><g><path d="M10.5,32.6c-0.1-6.2-1.3-12.1-3.1-17.8c-0.5-1.5-1.1-2.9-1.6-4.4C5.3,9,5.5,8.5,6.8,8.2C17.2,5.7,27.7,4.3,38.4,5   C44.1,5.3,49.6,6.4,55,8.2c0.6,0.2,1.2,0.8,1.5,1.3c3.6,8,5.6,16.5,5.8,25.2c0.1,8.3-2,16.1-5.8,23.5c-0.4,0.9-1.1,0.9-1.9,0.9   c-5.8,0-11.7,0-17.5,0c-10.3,0-20.6,0-30.9,0c-1.4,0-2-0.5-2.3-1.9c-1.8-7.3-3-14.7-3.7-22.1c-0.2-2.4,0-2.6,2.4-2.6   C5.1,32.6,7.7,32.6,10.5,32.6z M8.4,56.8c0.4,0.1,0.5,0.1,0.6,0.1c14.8,0,29.6,0,44.4,0c0.6,0,1.4-0.6,1.6-1.1   c2.6-5.2,4.2-10.7,4.7-16.5c0.9-9.8-1.2-19.2-5-28.2c-0.2-0.4-0.7-0.9-1.1-1c-5-1.7-10.2-2.5-15.5-2.9c-7.9-0.5-15.8,0.2-23.6,1.6   c-2.1,0.4-4.2,0.9-6.4,1.4C14.5,25.9,14.3,41.3,8.4,56.8z M1.9,34.9c1.2,7.3,2.3,14.4,3.4,21.6c0.2,0,0.4,0,0.5,0   c2.7-6.9,4.4-14,4.5-21.5C7.6,34.9,5,34.9,1.9,34.9z"/><g><g><path d="M13.9,17c0.1,0,6.9-1.5,16.3-1.8c-1.7,0.5-3.2,1.3-4.6,2.2c-6.7,0.5-11.2,1.5-11.3,1.5c-0.5,0.1-1.1-0.2-1.2-0.7     C13,17.6,13.4,17.1,13.9,17z"/><path d="M55.3,18.7c-0.1,0.4-0.5,0.7-0.9,0.7c-0.1,0-0.2,0-0.2,0c-3.2-0.8-6.5-1.4-9.7-1.8c-1.4-1-2.9-1.8-4.6-2.4     c4.8,0.3,9.8,0.9,14.8,2.2C55.1,17.6,55.4,18.1,55.3,18.7z"/><path d="M19.4,35.5c0.2,0.6,0.4,1.3,0.7,1.9c-2,0.4-3.2,0.6-3.3,0.6c-0.1,0-0.2,0-0.2,0c-0.4,0-0.8-0.3-1-0.8     c-0.1-0.5,0.2-1.1,0.7-1.2C16.4,36,17.5,35.8,19.4,35.5z"/><path d="M41.8,33.9c-0.3,0.7-0.7,1.3-1.3,1.9c-4-0.1-7.8,0.1-11.1,0.3c-0.5-0.5-1-1.2-1.4-1.8C32.1,33.9,36.8,33.7,41.8,33.9z"/><path d="M57.7,37.1c-0.1,0.5-0.7,0.8-1.2,0.7c-2.2-0.5-4.4-0.9-6.5-1.2c0.2-0.6,0.4-1.2,0.6-1.9c2.1,0.3,4.3,0.7,6.4,1.2     C57.5,36,57.9,36.5,57.7,37.1z"/><path d="M15.7,26.3c0.1,0,1.4-0.3,3.7-0.7c-0.2,0.7-0.4,1.4-0.5,2.1c-1.7,0.3-2.7,0.5-2.8,0.5c-0.1,0-0.2,0-0.2,0     c-0.4,0-0.8-0.3-1-0.8C14.9,27,15.2,26.4,15.7,26.3z"/><path d="M41,26.1c-4.5-0.2-8.8,0-12.5,0.3c0.6-0.8,1.3-1.6,2.1-2.1c2.5-0.2,5.2-0.3,8.1-0.2c0,0,0,0,0,0     C39.6,24.6,40.4,25.3,41,26.1z"/><path d="M57.1,27.3C57,27.9,56.5,28.2,56,28c-1.8-0.4-3.5-0.8-5.3-1.1c-0.2-0.7-0.4-1.4-0.6-2.1c2.1,0.3,4.3,0.7,6.4,1.2     C56.9,26.3,57.3,26.8,57.1,27.3z"/><path d="M56.7,45.7c-0.1,0.5-0.7,0.8-1.2,0.7c-4.1-1-8.3-1.6-12.4-1.8c0.9-0.5,1.7-1.1,2.4-1.8c3.4,0.3,7,0.9,10.4,1.7     C56.5,44.7,56.9,45.2,56.7,45.7z"/></g><g><path d="M24.2,47l-4.1-3.6l2.3-2.7c0.2-0.2,0.5-0.1,0.8,0.1l3,2.7c0.3,0.3,0.4,0.6,0.2,0.8L24.2,47z"/><path d="M17.4,50.6c-0.6-0.5-0.9-1.1-1-1.8c-0.1-0.7,0.1-1.3,0.5-1.8l0.6-0.6l4.1,3.6L21,50.6C20.1,51.6,18.5,51.6,17.4,50.6z"/><path d="M19.2,44.4c0.1,0,0.3,0,0.4,0.1l3.6,3.2c0.1,0.1,0.2,0.2,0.1,0.4c0,0,0,0,0,0l-0.3,0.4l-0.4,0.5c-0.1,0-0.3,0-0.4-0.1     l-3.6-3.2c-0.1-0.1-0.2-0.2-0.1-0.3L19.2,44.4z"/></g><path d="M34.9,44.5c-7.6,0-13.8-6.2-13.8-13.8s6.2-13.8,13.8-13.8s13.8,6.2,13.8,13.8S42.5,44.5,34.9,44.5z M34.9,20.6    c-5.6,0-10.1,4.5-10.1,10.1s4.5,10.1,10.1,10.1S45,36.3,45,30.7S40.5,20.6,34.9,20.6z"/></g></g></svg>