<svg fill="#fff" xmlns:dc="http://purl.org/dc/elements/1.1/" xmlns:cc="http://creativecommons.org/ns#" xmlns:rdf="http://www.w3.org/1999/02/22-rdf-syntax-ns#" xmlns:svg="http://www.w3.org/2000/svg" xmlns="http://www.w3.org/2000/svg" xmlns:sodipodi="http://sodipodi.sourceforge.net/DTD/sodipodi-0.dtd" xmlns:inkscape="http://www.inkscape.org/namespaces/inkscape" version="1.1" x="0px" y="0px" viewBox="0 0 482.854 603.5675" xml:space="preserve"><path d="M 213.74023 0.01171875 C 210.29031 -0.13308105 206.80117 1.1988281 204.32617 3.9550781 L 74.427734 148.6543 L 64.826172 148.6543 L 42.927734 148.6543 C 36.327734 148.6543 30.927734 154.0543 30.927734 160.6543 C 30.927734 167.2543 36.327734 172.6543 42.927734 172.6543 L 55.226562 172.6543 L 89.826172 333.95508 C 95.326172 361.65508 119.82695 381.75586 148.12695 381.75586 L 279.22656 381.75586 C 285.82656 381.75586 291.22656 376.35586 291.22656 369.75586 C 291.22656 363.15586 285.82656 357.75586 279.22656 357.75586 L 148.12695 357.75586 C 131.22695 357.75586 116.62617 345.7543 113.32617 329.1543 L 113.32617 328.95508 L 79.826172 172.6543 L 403.72656 172.6543 L 389.92773 240.25586 C 388.62773 246.75586 392.82617 253.05508 399.32617 254.45508 C 400.12617 254.65508 400.92656 254.6543 401.72656 254.6543 C 407.32656 254.6543 412.32773 250.75469 413.42773 245.05469 L 428.22656 172.6543 L 439.92773 172.6543 C 446.52773 172.6543 451.92773 167.2543 451.92773 160.6543 C 451.92773 154.0543 446.52773 148.6543 439.92773 148.6543 L 418.42773 148.6543 L 418.32617 148.6543 L 408.82617 148.6543 L 278.62695 3.9550781 C 274.22695 -0.94492188 266.62656 -1.3453125 261.72656 3.0546875 C 256.82656 7.4546875 256.42617 15.055078 260.82617 19.955078 L 376.62695 148.6543 L 106.72656 148.6543 L 222.12695 19.955078 C 226.52695 15.055078 226.12656 7.4546875 221.22656 3.0546875 C 219.08281 1.1296875 216.42351 0.12434082 213.74023 0.01171875 z M 364.62695 255.85547 C 358.02695 255.85547 352.62695 261.25547 352.62695 267.85547 L 352.62695 288.55469 L 349.02734 288.55469 C 323.52734 288.55469 302.72656 309.35547 302.72656 334.85547 C 302.72656 360.35547 323.52734 381.1543 349.02734 381.1543 L 380.32617 381.1543 C 392.62617 381.1543 402.62695 391.15508 402.62695 403.45508 C 402.62695 415.75508 392.62617 425.75586 380.32617 425.75586 L 324.12695 425.75586 C 317.52695 425.75586 312.12695 431.15586 312.12695 437.75586 C 312.12695 444.35586 317.52695 449.75586 324.12695 449.75586 L 352.62695 449.75586 L 352.62695 470.85547 C 352.62695 477.45547 358.02695 482.85547 364.62695 482.85547 C 371.22695 482.85547 376.62695 477.45547 376.62695 470.85547 L 376.62695 449.75586 L 380.52734 449.75586 L 380.82617 449.75586 C 406.02617 449.45586 426.42773 428.75508 426.42773 403.45508 C 426.52773 377.85508 405.82617 357.1543 380.32617 357.1543 L 349.02734 357.1543 C 336.72734 357.1543 326.72656 347.15547 326.72656 334.85547 C 326.72656 322.55547 336.72734 312.55469 349.02734 312.55469 L 404.12695 312.55469 C 410.72695 312.55469 416.12695 307.15469 416.12695 300.55469 C 416.12695 293.95469 410.72695 288.55469 404.12695 288.55469 L 376.62695 288.55469 L 376.62695 267.85547 C 376.62695 261.25547 371.22695 255.85547 364.62695 255.85547 z "/><text x="0" y="497.854" fill="#000000" font-size="5px" font-weight="bold" font-family="'Helvetica Neue', Helvetica, Arial-Unicode, Arial, Sans-serif">Created by Shuaibu Usman Yusuf</text><text x="0" y="502.854" fill="#000000" font-size="5px" font-weight="bold" font-family="'Helvetica Neue', Helvetica, Arial-Unicode, Arial, Sans-serif">from the Noun Project</text></svg>